# xmcd
#
# Track frame offsets:
#	150
#	18079
#	32405
#	47483
#	64101
#	79812
#	97749
#	118840
#	133164
#	149767
#	164959
#	182853
#
# Disc length: 2690 seconds
#
# Revision: 1
# Processed by: cddbd v1.5.2PL0 Copyright (c) Steve Scherf et al.
# Submitted via: audiograbber 1.83.01
#
DISCID=a60a800c
DTITLE=Kelly Clarkson - Breakaway
DYEAR=2005
DGENRE=
TTITLE0=Breakaway
TTITLE1=Since u been gone
TTITLE2=Behind these hazel eyes
TTITLE3=Because of u
TTITLE4=Gone
TTITLE5=Addicted
TTITLE6=Where is ur heart
TTITLE7=Walk away
TTITLE8=U find me
TTITLE9=I hate myself for losing u
TTITLE10=Hear me
TTITLE11=Beautiful disaster
EXTD=
EXTT0=
EXTT1=
EXTT2=
EXTT3=
EXTT4=
EXTT5=
EXTT6=
EXTT7=
EXTT8=
EXTT9=
EXTT10=
EXTT11=
PLAYORDER=
